<svg id="Layer_1" data-name="Layer 1" xmlns="http://www.w3.org/2000/svg" viewBox="0 0 79.2 79.55"><defs><style>.cls-1{fill:#fff;}</style></defs><title>LCF_logo)</title><polygon class="cls-1" points="0.01 26.55 0.01 0.36 4.51 0.36 4.51 22.63 11.59 22.63 11.59 26.55 0.01 26.55"/><path class="cls-1" d="M717.84,741.09V740c0-1.23-.57-1.75-1.21-1.75-1,0-1.33.52-1.33,1.61v7.36c0,1.09.32,1.61,1.33,1.61s1.21-.52,1.21-1.47v-1.75h2.49v1.67a3.45,3.45,0,0,1-3.7,3.72,3.49,3.49,0,0,1-3.82-3.72v-7.49a3.49,3.49,0,0,1,3.82-3.72c2.49,0,3.7,1.81,3.7,4v1.06h-2.49Z" transform="translate(-712.81 -706.21)"/><path class="cls-1" d="M724.09,747.19c0,1.09.32,1.61,1.32,1.61s1.33-.52,1.33-1.61v-7.36c0-1.09-.32-1.61-1.33-1.61s-1.32.52-1.32,1.61v7.36Zm-2.5-7.42a3.82,3.82,0,0,1,7.64,0v7.49a3.82,3.82,0,0,1-7.64,0v-7.49Z" transform="translate(-712.81 -706.21)"/><polygon class="cls-1" points="27.92 30.03 27.92 44.55 25.74 44.55 25.74 33.21 25.7 33.21 23.45 44.55 22.25 44.55 19.99 33.21 19.95 33.21 19.95 44.55 17.78 44.55 17.78 30.03 21.06 30.03 22.83 38.52 22.87 38.52 24.64 30.03 27.92 30.03"/><polygon class="cls-1" points="39.52 30.03 39.52 44.55 37.35 44.55 37.35 33.21 37.31 33.21 35.05 44.55 33.85 44.55 31.59 33.21 31.55 33.21 31.55 44.55 29.38 44.55 29.38 30.03 32.66 30.03 34.43 38.52 34.47 38.52 36.24 30.03 39.52 30.03"/><path class="cls-1" d="M753.81,736.24h2.49v11c0,1.07.42,1.59,1.33,1.59s1.33-.52,1.33-1.59v-11h2.49v10.87a3.82,3.82,0,1,1-7.64,0V736.24Z" transform="translate(-712.81 -706.21)"/><polygon class="cls-1" points="50.13 44.55 50.13 30.03 52.44 30.03 55.48 38.34 55.52 38.34 55.52 30.03 57.77 30.03 57.77 44.55 55.6 44.55 52.42 35.48 52.38 35.48 52.38 44.55 50.13 44.55"/><rect class="cls-1" x="59.6" y="30.03" width="2.5" height="14.53"/><polygon class="cls-1" points="65.49 32.2 63.08 32.2 63.08 30.03 70.4 30.03 70.4 32.2 67.99 32.2 67.99 44.55 65.49 44.55 65.49 32.2"/><polygon class="cls-1" points="0 62.33 0 48.02 6.86 48.02 6.86 50.17 2.46 50.17 2.46 53.85 5.75 53.85 5.75 55.99 2.46 55.99 2.46 62.33 0 62.33"/><path class="cls-1" d="M722.79,765c0,1.07.32,1.58,1.31,1.58s1.31-.51,1.31-1.58v-7.26c0-1.07-.32-1.58-1.31-1.58s-1.31.51-1.31,1.58V765Zm-2.46-7.31a3.77,3.77,0,0,1,7.53,0v7.37a3.77,3.77,0,0,1-7.53,0v-7.37Z" transform="translate(-712.81 -706.21)"/><path class="cls-1" d="M729.21,754.24h2.46V765c0,1,.42,1.56,1.31,1.56s1.31-.51,1.31-1.56v-10.8h2.46v10.7a3.77,3.77,0,1,1-7.53,0v-10.7Z" transform="translate(-712.81 -706.21)"/><polygon class="cls-1" points="25.52 62.33 25.52 48.02 27.8 48.02 30.8 56.21 30.83 56.21 30.83 48.02 33.05 48.02 33.05 62.33 30.91 62.33 27.78 53.39 27.74 53.39 27.74 62.33 25.52 62.33"/><path class="cls-1" d="M749.9,766.53h0.85c1.31,0,1.76-.5,1.76-2v-6.26c0-1.5-.45-2-1.76-2H749.9v10.27Zm-2.45-12.29h3.64c2.54,0,3.89,1.39,3.89,4.32v5.67c0,2.93-1.35,4.32-3.89,4.32h-3.64V754.24Z" transform="translate(-712.81 -706.21)"/><path class="cls-1" d="M758.66,763.24h2l-1-6.14h0Zm-0.79,5.31h-2.38l2.63-14.31h3.05l2.64,14.31h-2.38L761,765.38h-2.7Z" transform="translate(-712.81 -706.21)"/><polygon class="cls-1" points="52.7 50.17 50.32 50.17 50.32 48.03 57.53 48.03 57.53 50.17 55.15 50.17 55.15 62.33 52.7 62.33 52.7 50.17"/><rect class="cls-1" x="58.88" y="48.03" width="2.46" height="14.31"/><path class="cls-1" d="M778,765c0,1.07.32,1.58,1.31,1.58s1.31-.51,1.31-1.58v-7.26c0-1.07-.32-1.58-1.31-1.58s-1.31.51-1.31,1.58V765Zm-2.46-7.31a3.77,3.77,0,0,1,7.53,0v7.37a3.77,3.77,0,0,1-7.53,0v-7.37Z" transform="translate(-712.81 -706.21)"/><polygon class="cls-1" points="71.65 62.33 71.65 48.02 73.93 48.02 76.92 56.21 76.96 56.21 76.96 48.02 79.18 48.02 79.18 62.33 77.04 62.33 73.91 53.39 73.87 53.39 73.87 62.33 71.65 62.33"/><polygon class="cls-1" points="76.85 30.03 75.18 35.56 75.14 35.56 73.39 30.03 71.04 30.03 71.04 30.54 73.87 38.52 73.87 44.55 76.37 44.55 76.37 38.52 79.2 30.55 79.2 30.03 76.85 30.03"/><path class="cls-1" d="M731.51,723h3.63l-1.77-11.24h-0.07Zm-1.45,9.72H725.7l4.83-26.19h5.59l4.82,26.19h-4.35l-0.8-5.81h-4.93Z" transform="translate(-712.81 -706.21)"/><polygon class="cls-1" points="30.89 4.28 26.54 4.28 26.54 0.36 39.74 0.36 39.74 4.28 35.39 4.28 35.39 26.55 30.89 26.55 30.89 4.28"/><rect class="cls-1" x="41.85" y="0.36" width="4.5" height="26.19"/><polygon class="cls-1" points="49.28 26.55 49.28 0.36 53.45 0.36 58.93 15.34 59 15.34 59 0.36 63.06 0.36 63.06 26.55 59.15 26.55 53.41 10.19 53.34 10.19 53.34 26.55 49.28 26.55"/><path class="cls-1" d="M782.7,726.31c0,2,.58,2.9,2.4,2.9s2.39-.95,2.39-2.9V713c0-2-.58-2.9-2.39-2.9s-2.4.94-2.4,2.9v13.28Zm-4.5-13.39c0-3.69,2.18-6.71,6.89-6.71s6.89,3,6.89,6.71v13.5c0,3.7-2.18,6.71-6.89,6.71s-6.89-3-6.89-6.71v-13.5Z" transform="translate(-712.81 -706.21)"/><rect class="cls-1" y="65.81" width="1.82" height="13.74"/><rect class="cls-1" x="4.55" y="65.81" width="1.81" height="13.74"/><rect class="cls-1" x="9.1" y="65.81" width="1.82" height="13.74"/><rect class="cls-1" x="13.66" y="65.81" width="1.81" height="13.74"/><rect class="cls-1" x="18.21" y="65.81" width="1.82" height="13.74"/><rect class="cls-1" x="22.76" y="65.81" width="1.81" height="13.74"/><rect class="cls-1" x="27.31" y="65.81" width="1.82" height="13.74"/><rect class="cls-1" x="31.86" y="65.81" width="1.81" height="13.74"/><rect class="cls-1" x="36.41" y="65.81" width="1.81" height="13.74"/><rect class="cls-1" x="40.96" y="65.81" width="1.82" height="13.74"/><rect class="cls-1" x="45.51" y="65.81" width="1.81" height="13.74"/><rect class="cls-1" x="50.06" y="65.81" width="1.82" height="13.74"/><rect class="cls-1" x="54.62" y="65.81" width="1.81" height="13.74"/><rect class="cls-1" x="59.17" y="65.81" width="1.82" height="13.74"/><rect class="cls-1" x="63.72" y="65.81" width="1.82" height="13.74"/><rect class="cls-1" x="68.27" y="65.81" width="1.81" height="13.74"/><rect class="cls-1" x="72.82" y="65.81" width="1.82" height="13.74"/><rect class="cls-1" x="77.37" y="65.81" width="1.82" height="13.74"/></svg>